name rise49.25peak52.1432fall72.8391.mot
datacolumns 19
datarows 27
range 4.33164700000000 4.37497800000000
endheader
time	ground_force1_vx	ground_force1_vy	ground_force1_vz	ground_force1_px	ground_force1_py	ground_force1_pz	ground_force2_vx	ground_force2_vy	ground_force2_vz	ground_force2_px	ground_force2_py	ground_force2_pz	ground_torque1_x	ground_torque1_y	ground_torque1_z	ground_torque2_x	ground_torque2_y	ground_torque2_z	
4.33164700000000	19.94479500000000	728.04920100000004	37.40001500000000	0.24267800000000	0.00000000000000	0.08323500000000	0.00000000000000	0.00000000000000	0.00000000000000	0.00000000000000	0.00000000000000	0.00000000000000	0.00000000000000	15.77416700000000	0.00000000000000	0.00000000000000	0.00000000000000	0.00000000000000	
4.33331700000000	19.50811900000000	728.82488599999999	37.42169400000000	0.24176000000000	0.00000000000000	0.08319500000000	0.00000000000000	0.00000000000000	0.00000000000000	0.00000000000000	0.00000000000000	0.00000000000000	0.00000000000000	15.81199300000000	0.00000000000000	0.00000000000000	0.00000000000000	0.00000000000000	
4.33498500000000	19.05969400000000	729.58834600000000	37.44216600000000	0.24082100000000	0.00000000000000	0.08315600000000	0.00000000000000	0.00000000000000	0.00000000000000	0.00000000000000	0.00000000000000	0.00000000000000	0.00000000000000	15.85062900000000	0.00000000000000	0.00000000000000	0.00000000000000	0.00000000000000	
4.33664800000000	18.59970600000000	730.33851500000003	37.46144000000000	0.23985900000000	0.00000000000000	0.08311900000000	0.00000000000000	0.00000000000000	0.00000000000000	0.00000000000000	0.00000000000000	0.00000000000000	0.00000000000000	15.89005100000000	0.00000000000000	0.00000000000000	0.00000000000000	0.00000000000000	
4.33831500000000	18.12837800000000	731.07443000000001	37.47953600000000	0.23887600000000	0.00000000000000	0.08308300000000	0.00000000000000	0.00000000000000	0.00000000000000	0.00000000000000	0.00000000000000	0.00000000000000	0.00000000000000	15.93023900000000	0.00000000000000	0.00000000000000	0.00000000000000	0.00000000000000	
4.33998700000000	17.64596800000000	731.79523700000004	37.49648200000000	0.23787200000000	0.00000000000000	0.08305000000000	0.00000000000000	0.00000000000000	0.00000000000000	0.00000000000000	0.00000000000000	0.00000000000000	0.00000000000000	15.97117500000000	0.00000000000000	0.00000000000000	0.00000000000000	0.00000000000000	
4.34165000000000	17.15276800000000	732.50019299999997	37.51232100000000	0.23684800000000	0.00000000000000	0.08301700000000	0.00000000000000	0.00000000000000	0.00000000000000	0.00000000000000	0.00000000000000	0.00000000000000	0.00000000000000	16.01284200000000	0.00000000000000	0.00000000000000	0.00000000000000	0.00000000000000	
4.34332200000000	16.64910300000000	733.18866900000000	37.52710100000000	0.23580500000000	0.00000000000000	0.08298700000000	0.00000000000000	0.00000000000000	0.00000000000000	0.00000000000000	0.00000000000000	0.00000000000000	0.00000000000000	16.05522700000000	0.00000000000000	0.00000000000000	0.00000000000000	0.00000000000000	
4.34498600000000	16.13532400000000	733.86014799999998	37.54088300000000	0.23474300000000	0.00000000000000	0.08295800000000	0.00000000000000	0.00000000000000	0.00000000000000	0.00000000000000	0.00000000000000	0.00000000000000	0.00000000000000	16.09831800000000	0.00000000000000	0.00000000000000	0.00000000000000	0.00000000000000	
4.34665000000000	15.61181500000000	734.51422700000001	37.55373600000000	0.23366400000000	0.00000000000000	0.08293000000000	0.00000000000000	0.00000000000000	0.00000000000000	0.00000000000000	0.00000000000000	0.00000000000000	0.00000000000000	16.14210600000000	0.00000000000000	0.00000000000000	0.00000000000000	0.00000000000000	
4.34831800000000	15.07898400000000	735.15062100000000	37.56574000000000	0.23256900000000	0.00000000000000	0.08290400000000	0.00000000000000	0.00000000000000	0.00000000000000	0.00000000000000	0.00000000000000	0.00000000000000	0.00000000000000	16.18657900000000	0.00000000000000	0.00000000000000	0.00000000000000	0.00000000000000	
4.34998600000000	14.53726400000000	735.76915899999995	37.57698200000000	0.23145900000000	0.00000000000000	0.08288000000000	0.00000000000000	0.00000000000000	0.00000000000000	0.00000000000000	0.00000000000000	0.00000000000000	0.00000000000000	16.23173200000000	0.00000000000000	0.00000000000000	0.00000000000000	0.00000000000000	
4.35164500000000	13.98711000000000	736.36978599999998	37.58755900000000	0.23033500000000	0.00000000000000	0.08285700000000	0.00000000000000	0.00000000000000	0.00000000000000	0.00000000000000	0.00000000000000	0.00000000000000	0.00000000000000	16.27755400000000	0.00000000000000	0.00000000000000	0.00000000000000	0.00000000000000	
4.35331800000000	13.42899700000000	736.95256199999994	37.59757700000000	0.22919900000000	0.00000000000000	0.08283500000000	0.00000000000000	0.00000000000000	0.00000000000000	0.00000000000000	0.00000000000000	0.00000000000000	0.00000000000000	16.32404100000000	0.00000000000000	0.00000000000000	0.00000000000000	0.00000000000000	
4.35497800000000	12.86341800000000	737.51766199999997	37.60715000000000	0.22805200000000	0.00000000000000	0.08281400000000	0.00000000000000	0.00000000000000	0.00000000000000	0.00000000000000	0.00000000000000	0.00000000000000	0.00000000000000	16.37118300000000	0.00000000000000	0.00000000000000	0.00000000000000	0.00000000000000	
4.35665000000000	12.29088000000000	738.06537400000002	37.61640000000000	0.22689500000000	0.00000000000000	0.08279500000000	0.00000000000000	0.00000000000000	0.00000000000000	0.00000000000000	0.00000000000000	0.00000000000000	0.00000000000000	16.41897500000000	0.00000000000000	0.00000000000000	0.00000000000000	0.00000000000000	
4.35831700000000	11.71190500000000	738.59609899999998	37.62545900000000	0.22573100000000	0.00000000000000	0.08277600000000	0.00000000000000	0.00000000000000	0.00000000000000	0.00000000000000	0.00000000000000	0.00000000000000	0.00000000000000	16.46740800000000	0.00000000000000	0.00000000000000	0.00000000000000	0.00000000000000	
4.35999800000000	11.12702600000000	739.11034500000005	37.63446500000000	0.22456000000000	0.00000000000000	0.08275900000000	0.00000000000000	0.00000000000000	0.00000000000000	0.00000000000000	0.00000000000000	0.00000000000000	0.00000000000000	16.51647400000000	0.00000000000000	0.00000000000000	0.00000000000000	0.00000000000000	
4.36164900000000	10.53678200000000	739.60873100000003	37.64356500000000	0.22338400000000	0.00000000000000	0.08274300000000	0.00000000000000	0.00000000000000	0.00000000000000	0.00000000000000	0.00000000000000	0.00000000000000	0.00000000000000	16.56616500000000	0.00000000000000	0.00000000000000	0.00000000000000	0.00000000000000	
4.36331300000000	9.94171900000000	740.09197700000004	37.65291100000000	0.22220500000000	0.00000000000000	0.08272700000000	0.00000000000000	0.00000000000000	0.00000000000000	0.00000000000000	0.00000000000000	0.00000000000000	0.00000000000000	16.61647000000000	0.00000000000000	0.00000000000000	0.00000000000000	0.00000000000000	
4.36498600000000	9.34238800000000	740.56090800000004	37.66266500000000	0.22102300000000	0.00000000000000	0.08271200000000	0.00000000000000	0.00000000000000	0.00000000000000	0.00000000000000	0.00000000000000	0.00000000000000	0.00000000000000	16.66737800000000	0.00000000000000	0.00000000000000	0.00000000000000	0.00000000000000	
4.36664700000000	8.73934100000000	741.01644599999997	37.67299500000000	0.21984100000000	0.00000000000000	0.08269700000000	0.00000000000000	0.00000000000000	0.00000000000000	0.00000000000000	0.00000000000000	0.00000000000000	0.00000000000000	16.71887600000000	0.00000000000000	0.00000000000000	0.00000000000000	0.00000000000000	
4.36831500000000	8.13312800000000	741.45960600000001	37.68407400000000	0.21866000000000	0.00000000000000	0.08268300000000	0.00000000000000	0.00000000000000	0.00000000000000	0.00000000000000	0.00000000000000	0.00000000000000	0.00000000000000	16.77095100000000	0.00000000000000	0.00000000000000	0.00000000000000	0.00000000000000	
4.36998500000000	7.52429600000000	741.89149399999997	37.69608300000000	0.21748100000000	0.00000000000000	0.08267000000000	0.00000000000000	0.00000000000000	0.00000000000000	0.00000000000000	0.00000000000000	0.00000000000000	0.00000000000000	16.82358600000000	0.00000000000000	0.00000000000000	0.00000000000000	0.00000000000000	
4.37165000000000	6.91339000000000	742.31330300000002	37.70920800000000	0.21630600000000	0.00000000000000	0.08265600000000	0.00000000000000	0.00000000000000	0.00000000000000	0.00000000000000	0.00000000000000	0.00000000000000	0.00000000000000	16.87676400000000	0.00000000000000	0.00000000000000	0.00000000000000	0.00000000000000	
4.37331800000000	6.30094300000000	742.72630500000002	37.72364000000000	0.21513600000000	0.00000000000000	0.08264300000000	0.00000000000000	0.00000000000000	0.00000000000000	0.00000000000000	0.00000000000000	0.00000000000000	0.00000000000000	16.93046400000000	0.00000000000000	0.00000000000000	0.00000000000000	0.00000000000000	
4.37497800000000	5.68748400000000	743.13184799999999	37.73957500000000	0.21397200000000	0.00000000000000	0.08263000000000	0.00000000000000	0.00000000000000	0.00000000000000	0.00000000000000	0.00000000000000	0.00000000000000	0.00000000000000	16.98466600000000	0.00000000000000	0.00000000000000	0.00000000000000	0.00000000000000	
